# xmcd
#
# Track frame offsets: 
#        150
#        7396
#        19323
#        22825
#        27264
#        31308
#        35879
#        39782
#        45577
#        50497
#        55069
#        59410
#        63474
#        67863
#        72407
#        77557
#        81460
#        85210
#        89322
#        92692
#        97651
#        101787
#        119246
#        126625
#        134708
#        144887
#        155072
#        160313
#        167103
#        175956
#        182534
#        194950
#        203955
#
# Disc length: 2815 seconds
#
# Revision: 2
# Processed by: cddbd v1.5.1PL0 Copyright (c) Steve Scherf et al.
# Submitted via: ExactAudioCopy v0.95a5
#
DISCID=de0afd21
DTITLE=B棚 - 龟驹里h躬
DYEAR=2000
DGENRE=
TTITLE0=INTRO
TTITLE1=里h躬W`ノ郸猊芙d
TTITLE2=`到m策 WAITZ
TTITLE3=`到m策 TWIST
TTITLE4=`到m策 SOUL
TTITLE5=`到m策 ROCK
TTITLE6=`到m策 HARD ROCK
TTITLE7=`到m策 SLOW ROCK
TTITLE8=`到m策 DISCO
TTITLE9=`到m策 FUNK
TTITLE10=`到m策 RUMBA
TTITLE11=`到m策 CHA CHA
TTITLE12=`到m策 BOSSANOVA
TTITLE13=`到m策 REGGIE
TTITLE14=`到m策 TANGO
TTITLE15=`到m策 SLOW TANGO
TTITLE16=`到m策 SAMBA
TTITLE17=`到m策 SONGO
TTITLE18=`到m策 SHUFFLE
TTITLE19=`到m策 SWING
TTITLE20=`到m策 JAZZ
TTITLE21=导趾t单芙d ROCK
TTITLE22=导趾t单芙d SLOW ROCK
TTITLE23=导趾t单芙dSLOW SOUL
TTITLE24=导趾t单芙d POP
TTITLE25=导趾t单芙d DISCO
TTITLE26=导趾t单芙d FUNK
TTITLE27=导趾t单芙d FUNK POP
TTITLE28=导趾t单芙d SHUFFLE
TTITLE29=导趾t单芙d SHUFFLE FIELD
TTITLE30=导趾t单芙d FUSION
TTITLE31=导趾t单芙d IT'S SO EASY
TTITLE32=导趾t单芙d ENDING
EXTD=
EXTT0=
EXTT1=
EXTT2=
EXTT3=
EXTT4=
EXTT5=
EXTT6=
EXTT7=
EXTT8=
EXTT9=
EXTT10=
EXTT11=
EXTT12=
EXTT13=
EXTT14=
EXTT15=
EXTT16=
EXTT17=
EXTT18=
EXTT19=
EXTT20=
EXTT21=
EXTT22=
EXTT23=
EXTT24=
EXTT25=
EXTT26=
EXTT27=
EXTT28=
EXTT29=
EXTT30=
EXTT31=
EXTT32=
PLAYORDER=
